<?xml version="1.0" encoding="UTF-8"?>
<svg version="1.1" xmlns="http://www.w3.org/2000/svg" width="2000" height="2000" viewBox="0 0 2000 2000">
<path d="M0 0 C660 0 1320 0 2000 0 C2000 660 2000 1320 2000 2000 C1340 2000 680 2000 0 2000 C0 1340 0 680 0 0 Z " fill="#FEFEFE" transform="translate(0,0)"/>
<path d="M0 0 C3.24995032 2.98995429 5.38259099 6.03507521 7.58203125 9.85546875 C7.91269089 10.4251387 8.24335052 10.99480865 8.58403015 11.58174133 C9.29471585 12.80749399 10.00262589 14.03485941 10.70800781 15.26367188 C12.60154003 18.56186681 14.51543443 21.84824488 16.42578125 25.13671875 C16.81279205 25.8043222 17.19980286 26.47192566 17.59854126 27.15975952 C21.16864915 33.31176433 24.82359548 39.4109705 28.5 45.5 C33.90096052 54.46132203 39.22141684 63.46634595 44.5 72.5 C50.40668638 82.60742245 56.37792251 92.67257928 62.41503906 102.70288086 C68.59156663 112.96863395 74.69438548 123.27745305 80.79551697 133.58813477 C85.02246578 140.73009952 89.26176528 147.86472925 93.5 155 C99.33847862 164.83029172 105.17281481 174.66300818 111 184.5 C119.18238334 198.3123225 127.37897268 212.11619082 135.57666016 225.91943359 C139.15675978 231.94768296 142.73611586 237.9763738 146.31552124 244.0050354 C148.29364972 247.33670873 150.27182737 250.66835288 152.25 254 C153.0416669 255.33333319 153.83333357 256.66666653 154.625 258 C155.016875 258.66 155.40875 259.32 155.8125 260 C178.37499988 297.9999998 178.37499988 297.9999998 179.56245422 299.99992371 C180.35427254 301.33351191 181.14609179 302.66709956 181.93791199 304.00068665 C183.91476615 307.33011587 185.89160407 310.65955474 187.8684082 313.98901367 C191.45848889 320.03561868 195.04869625 326.0821483 198.63949585 332.12832642 C207.08258056 346.34479012 215.52136889 360.56375901 223.94873047 374.78955078 C229.86546331 384.775963 235.78979058 394.75785684 241.71826172 404.73730469 C245.35806997 410.86451146 248.99675741 416.99235772 252.62727356 423.12507629 C254.62557321 426.50060948 256.62502691 429.87545808 258.625 433.25 C259.21225357 434.24101212 259.21225357 434.24101212 259.81137085 435.25204468 C265.8715408 445.47326941 272.02152 455.63704257 278.21133423 465.78015137 C282.55463673 472.90261603 286.8037104 480.05467094 290.83813477 487.35620117 C294.11330629 493.26685617 297.59281368 499.0474002 301.08300781 504.83300781 C305.27644789 511.78563254 309.42731628 518.76257891 313.5625 525.75 C314.93226062 528.06382047 316.3020491 530.37762443 317.671875 532.69140625 C318.19675507 533.57807983 318.19675507 533.57807983 318.73223877 534.48266602 C322.91929102 541.55472404 327.11586311 548.62112691 331.3125 555.6875 C332.11531785 557.03938678 332.91813359 558.39127481 333.72094727 559.74316406 C335.3394728 562.46861422 336.95805304 565.19403189 338.57666016 567.91943359 C342.15675978 573.94768296 345.73611586 579.9763738 349.31552124 586.0050354 C351.29364972 589.33670873 353.27182737 592.66835288 355.25 596 C356.0416669 597.33333319 356.83333357 598.66666653 357.625 600 C358.016875 600.66 358.40875 601.32 358.8125 602 C381.37499987 639.99999978 381.37499987 639.99999978 382.56245422 641.99992371 C383.35427254 643.33351191 384.14609179 644.66709956 384.93791199 646.00068665 C386.91476615 649.33011587 388.89160407 652.65955474 390.8684082 655.98901367 C394.45848889 662.03561868 398.04869625 668.0821483 401.63949585 674.12832642 C410.08258056 688.34479012 418.52136889 702.56375901 426.94873047 716.78955078 C432.86546331 726.775963 438.78979058 736.75785684 444.71826172 746.73730469 C448.35806997 752.86451146 451.99675741 758.99235772 455.62727356 765.12507629 C457.62557321 768.50060948 459.62502691 771.87545808 461.625 775.25 C462.01650238 775.91067474 462.40800476 776.57134949 462.81137085 777.25204468 C468.87021578 787.47103459 475.01449739 797.63543547 481.20831299 807.77310181 C485.27142377 814.42662932 489.24708604 821.10418885 493 827.9375 C502.88025807 845.80317212 514.17266172 858.84313625 534.140625 865.23828125 C550.94637659 869.71522327 566.42376169 866.41230924 581.23193359 858.04052734 C593.45781004 850.84545893 600.47010236 839.77549072 607.25 827.625 C608.24012878 825.88014912 609.23027189 824.13530529 610.22247314 822.39163208 C611.20713238 820.66104355 612.18951756 818.92916179 613.171875 817.19726562 C615.63713502 812.88569441 618.17932093 808.62431439 620.75 804.375 C625.95552288 795.75200833 631.11039176 787.09987822 636.25 778.4375 C636.65875366 777.74871765 637.06750732 777.0599353 637.48864746 776.35028076 C642.99627398 767.06913088 648.49868947 757.78489469 654 748.5 C655.30338161 746.300779 656.60676708 744.10156027 657.91015625 741.90234375 C660.02951009 738.32628979 662.14825988 734.74988402 664.26513672 731.17236328 C666.65433022 727.13479674 669.0452142 723.09823508 671.4375 719.0625 C671.83558868 718.39084808 672.23367737 717.71919617 672.64382935 717.02719116 C678.69330717 706.82625821 684.82937385 696.68100522 691.00836182 686.55813599 C696.06919474 678.26012667 700.97908564 669.89275015 705.7644043 661.43334961 C709.48600311 654.86308816 713.33467243 648.37831415 717.23535156 641.91308594 C721.37829941 635.04528179 725.4774674 628.15240029 729.5625 621.25 C730.92835386 618.94268965 732.29423232 616.63539388 733.66015625 614.328125 C734.00944183 613.73806671 734.35872742 613.14800842 734.71859741 612.54006958 C738.97205773 605.35588683 743.23639389 598.17816424 747.5 591 C753.33844921 581.16969041 759.17261428 571.33687329 765 561.5 C766.30336361 559.30076833 767.60674928 557.10154973 768.91015625 554.90234375 C771.02951009 551.32628979 773.14825988 547.74988402 775.26513672 544.17236328 C777.65433022 540.13479674 780.0452142 536.09823508 782.4375 532.0625 C782.83558868 531.39084808 783.23367737 530.71919617 783.64382935 530.02719116 C789.69330717 519.82625821 795.82937385 509.68100522 802.00836182 499.55813599 C807.06919474 491.26012667 811.97908564 482.89275015 816.7644043 474.43334961 C820.48600311 467.86308816 824.33467243 461.37831415 828.23535156 454.91308594 C832.37829941 448.04528179 836.4774674 441.15240029 840.5625 434.25 C841.92835386 431.94268965 843.29423232 429.63539388 844.66015625 427.328125 C845.00944183 426.73806671 845.35872742 426.14800842 845.71859741 425.54006958 C849.97205773 418.35588683 854.23639389 411.17816424 858.5 404 C864.33844921 394.16969041 870.17261428 384.33687329 876 374.5 C877.30336361 372.30076833 878.60674928 370.10154973 879.91015625 367.90234375 C882.02951009 364.32628979 884.14825988 360.74988402 886.26513672 357.17236328 C888.65433022 353.13479674 891.0452142 349.09823508 893.4375 345.0625 C893.83558868 344.39084808 894.23367737 343.71919617 894.64382935 343.02719116 C900.69330717 332.82625821 906.82937385 322.68100522 913.00836182 312.55813599 C918.06919474 304.26012667 922.97908564 295.89275015 927.7644043 287.43334961 C931.48600311 280.86308816 935.33467243 274.37831415 939.23535156 267.91308594 C943.37829941 261.04528179 947.4774674 254.15240029 951.5625 247.25 C952.92835386 244.94268965 954.29423232 242.63539388 955.66015625 240.328125 C956.18408463 239.44303757 956.18408463 239.44303757 956.71859741 238.54006958 C960.97205773 231.35588683 965.23639389 224.17816424 969.5 217 C975.33844921 207.16969041 981.17261428 197.33687329 987 187.5 C988.30336361 185.30076833 989.60674928 183.10154973 990.91015625 180.90234375 C993.02951009 177.32628979 995.14825988 173.74988402 997.26513672 170.17236328 C999.65433022 166.13479674 1002.0452142 162.09823508 1004.4375 158.0625 C1005.03463303 157.05502213 1005.03463303 157.05502213 1005.64382935 156.02719116 C1011.69330717 145.82625821 1017.82937385 135.68100522 1024.00836182 125.55813599 C1029.06919474 117.26012667 1033.97908564 108.89275015 1038.7644043 100.43334961 C1042.48600311 93.86308816 1046.33467243 87.37831415 1050.23535156 80.91308594 C1054.37829997 74.04528087 1058.47736084 67.15233794 1062.5625 60.25 C1063.57178516 58.54557152 1064.58107042 56.8411431 1065.59036255 55.13671875 C1066.64641945 53.35323597 1067.70236882 51.56968956 1068.75830078 49.78613281 C1072.42487171 43.59329553 1076.09229599 37.40096853 1079.76339722 31.21081543 C1080.57298865 29.84525301 1081.38218767 28.47945784 1082.19094849 27.11340332 C1084.42161906 23.34579878 1086.66199316 19.58426877 1088.91210938 15.82824707 C1090.0310951 13.94774334 1091.13311214 12.05791935 1092.234375 10.16699219 C1092.94749681 8.96264192 1093.66102124 7.75852994 1094.375 6.5546875 C1095.31472656 4.94956299 1095.31472656 4.94956299 1096.2734375 3.31201172 C1096.84320312 2.54904785 1097.41296875 1.78608398 1098 1 C1098.99 1 1099.98 1 1101 1 C1107.46597802 14.32538434 1113.87536653 27.66751092 1120.0625 41.125 C1125.95054432 53.91193533 1132.12280164 66.55254071 1138.31985474 79.19195557 C1144.01682264 90.81644045 1149.59284112 102.47808654 1154.98828125 114.24609375 C1159.82741171 124.74516921 1164.91079702 135.12043235 1170 145.5 C1176.13916934 158.02100257 1182.17618103 170.56930823 1187.98828125 183.24609375 C1192.82741281 193.7451716 1197.91086229 204.12039813 1203 214.5 C1209.22836559 227.20367333 1215.36934058 239.93046758 1221.25854492 252.79541016 C1224.10864376 258.99956358 1227.038152 265.15483469 1230.06640625 271.2734375 C1245.77064965 303.02878202 1257.47044801 333.92337595 1257.375 369.9375 C1257.37512085 370.64734039 1257.3752417 371.35718079 1257.37536621 372.08853149 C1257.34352016 385.34000808 1255.96807163 398.06036442 1253 411 C1252.76772705 412.0194873 1252.76772705 412.0194873 1252.53076172 413.05957031 C1248.46156541 430.17452887 1241.13194926 446.47974923 1233.5 462.25 C1232.70672533 463.90574591 1231.9141771 465.56184004 1231.12231445 467.21826172 C1228.76041873 472.15143377 1226.38279704 477.07689531 1224 482 C1223.64903259 482.72537964 1223.29806519 483.45075928 1222.9364624 484.19812012 C1220.0699003 490.121126 1217.19990529 496.0424611 1214.32299805 501.96044922 C1210.39248583 510.05627891 1206.57165172 518.19805451 1202.8125 526.375 C1196.96856749 539.08032308 1190.83593677 551.63677684 1184.67959595 564.1930542 C1179.50748923 574.74658596 1174.3984122 585.31606159 1169.5 596 C1163.76785521 608.50239454 1157.7328314 620.84726185 1151.67822266 633.19580078 C1146.50657679 643.74841646 1141.39798478 654.31699382 1136.5 665 C1130.76785521 677.50239454 1124.7328314 689.84726185 1118.67822266 702.19580078 C1113.50657679 712.74841646 1108.39798478 723.31699382 1103.5 734 C1097.76785521 746.50239454 1091.7328314 758.84726185 1085.67822266 771.19580078 C1080.50657679 781.74841646 1075.39798478 792.31699382 1070.5 803 C1064.76785521 815.50239454 1058.7328314 827.84726185 1052.67822266 840.19580078 C1047.50657679 850.74841646 1042.39798478 861.31699382 1037.5 872 C1031.76785521 884.50239454 1025.7328314 896.84726185 1019.67822266 909.19580078 C1014.50657679 919.74841646 1009.39798478 930.31699382 1004.5 941 C999.18491015 952.59275503 993.61407364 964.04980595 988 975.5 C982.32465902 987.07552596 976.69635995 998.66033535 971.3125 1010.375 C966.74363068 1020.28422168 962.13064157 1030.17088276 957.41317749 1040.01031494 C956.69604507 1041.51027433 955.98281145 1043.01210594 955.27407837 1044.51605225 C947.85024784 1060.25286443 938.70299338 1074.11623949 927 1087 C926.16082031 1087.93457031 925.32164063 1088.86914062 924.45703125 1089.83203125 C904.16468324 1111.29095902 876.55195875 1123.29574186 848 1129 C847.13659223 1129.17727465 846.27318446 1129.35454931 845.38361281 1129.53719592 C840.97909018 1130.13963809 836.66575623 1130.14003778 832.22547626 1130.13142776 C831.24161205 1130.1334804 830.25774783 1130.13553303 829.24406955 1130.13764787 C825.93315238 1130.14332153 822.62227677 1130.14186015 819.31135559 1130.14044189 C816.91908412 1130.14302534 814.52681308 1130.14603844 812.13454264 1130.1494453 C806.24004595 1130.15667397 800.34555766 1130.15921806 794.45105757 1130.15977435 C787.3903014 1130.1606886 780.3295536 1130.16735808 773.26880103 1130.17412117 C756.20070623 1130.19017946 739.13261233 1130.19608481 722.06451134 1130.20086992 C713.98645855 1130.20320662 705.90840647 1130.20680941 697.83035423 1130.2105653 C670.16740757 1130.2234023 642.5044613 1130.23412006 614.84151173 1130.2375679 C613.10498714 1130.23778953 611.36846255 1130.23801132 609.63193796 1130.23823325 C607.89125372 1130.23845389 606.15056947 1130.23867437 604.40988523 1130.2388947 C600.91786945 1130.23933725 597.42585367 1130.23978437 593.93383789 1130.24023438 C593.06802118 1130.24034377 592.20220448 1130.24045316 591.3101509 1130.24056586 C563.25498999 1130.24419406 535.19985496 1130.26010439 507.14470396 1130.28342474 C477.47008098 1130.30804603 447.79547279 1130.32174186 418.1208393 1130.32293582 C414.86021435 1130.32310727 411.59958941 1130.32332269 408.33896446 1130.32357025 C407.53613092 1130.32362602 406.73329738 1130.32368179 405.90613555 1130.32373925 C393.00970096 1130.32488787 380.113293 1130.33589409 367.21686738 1130.35045731 C354.24077836 1130.36485647 341.26472332 1130.36804009 328.2886285 1130.36001733 C320.58962289 1130.3555767 312.89072731 1130.35935847 305.19173626 1130.37525584 C299.42706221 1130.38622148 293.66248526 1130.38131544 287.89781495 1130.37048396 C285.5773471 1130.36853331 283.25686806 1130.37157594 280.93641589 1130.38032833 C263.85717815 1130.44063108 246.90892464 1129.70342778 230.625 1124 C229.7697876 1123.70657715 228.9145752 1123.4131543 228.03344727 1123.11083984 C208.47056062 1116.08039959 192.0537592 1105.20890537 177 1091 C175.98679687 1090.06607422 175.98679687 1090.06607422 174.953125 1089.11328125 C160.30695578 1075.14083581 150.9454833 1057.46919483 142.3125 1039.4375 C141.5145386 1037.783997 140.71619283 1036.13067945 139.91748047 1034.47753906 C134.87626299 1024.02041903 129.95906419 1013.51035993 125.11450195 1002.96069336 C119.81936311 991.48666168 114.24266206 980.15322216 108.67977905 968.80731201 C102.96004528 957.13613752 97.36044596 945.42763676 91.94140625 933.61328125 C87.28092063 923.49979087 82.3977688 913.50019907 77.5 903.5 C72.07524734 892.42381231 66.7047144 881.33583296 61.5625 870.125 C55.80798042 857.58194559 49.75346286 845.19485563 43.67849731 832.80474854 C38.50675603 822.25194301 33.39826632 811.68310759 28.5 801 C23.13663851 789.30702482 17.52929966 777.74195535 11.875 766.1875 C11.43692017 765.29215546 10.99884033 764.39681091 10.54748535 763.47433472 C8.8356768 759.97613065 7.12369676 756.4780106 5.41137695 752.98005676 C-0.69813892 740.49377232 -6.68317852 727.95032524 -12.58203125 715.36328125 C-13.9085624 712.53371727 -15.23544036 709.70431616 -16.5625 706.875 C-16.89750519 706.16044647 -17.23251038 705.44589294 -17.57766724 704.70968628 C-23.38457508 692.33288504 -29.34224134 680.03369987 -35.3477478 667.7522583 C-40.1312012 657.96491703 -44.83006339 648.15086563 -49.375 638.25 C-55.15206114 625.66635786 -61.22590219 613.23698057 -67.32122803 600.80529785 C-73.01773382 589.18172915 -78.5932688 577.52098066 -83.98828125 565.75390625 C-88.82741226 555.2548296 -93.91082964 544.87958476 -99 534.5 C-105.18164938 521.89198534 -111.26742645 509.25827537 -117.11791992 496.49243164 C-121.30869075 487.38774241 -125.69722464 478.38763303 -130.1109314 469.38943481 C-148.35120081 432.16812971 -148.35120081 432.16812971 -153 412 C-153.19609863 411.19272461 -153.39219727 410.38544922 -153.59423828 409.55371094 C-156.6618244 396.55597482 -157.37141249 383.79600096 -157.375 370.5 C-157.37690338 369.74213196 -157.37880676 368.98426392 -157.38076782 368.20343018 C-157.37689527 354.59676461 -156.19964767 341.34051234 -152.75 328.125 C-152.52948975 327.27534668 -152.30897949 326.42569336 -152.08178711 325.55029297 C-145.02856287 299.03690841 -131.85397111 274.72065581 -119.88427734 250.16210938 C-115.74097239 241.65185234 -111.70096234 233.10172613 -107.75 224.5 C-101.92859564 211.83527518 -95.81529945 199.3210923 -89.67932129 186.80639648 C-84.50730674 176.25304794 -79.39832671 165.68375197 -74.5 155 C-68.76785521 142.49760546 -62.7328314 130.15273815 -56.67822266 117.80419922 C-51.50657679 107.25158354 -46.39798478 96.68300618 -41.5 86 C-35.77376275 73.5104904 -29.74711215 61.17713892 -23.6963501 48.84246826 C-17.56719834 36.34325579 -11.56378442 23.79823255 -5.78125 11.13476562 C-5.30429687 10.09255859 -4.82734375 9.05035156 -4.3359375 7.9765625 C-3.92907715 7.08018066 -3.5222168 6.18379883 -3.10302734 5.26025391 C-2 3 -2 3 0 0 Z " fill="#004AAD" transform="translate(450,631)"/>
</svg>
