<?xml version="1.0" encoding="UTF-8"?>
<svg version="1.1" xmlns="http://www.w3.org/2000/svg" width="40" height="40" viewBox="0 0 2000 2000" preserveAspectRatio="xMidYMid meet">
<path d="M0 0 C660 0 1320 0 2000 0 C2000 660 2000 1320 2000 2000 C1340 2000 680 2000 0 2000 C0 1340 0 680 0 0 Z " fill="#FEFEFE" transform="translate(0,0)"/>
<path d="M0 0 C3.21693815 2.96418818 5.33784972 5.96277592 7.51171875 9.75 C7.83713654 10.31182983 8.16255432 10.87365967 8.49783325 11.45251465 C9.19955038 12.66499111 9.89856233 13.87903645 10.59512329 15.09448242 C12.47450465 18.37283337 14.37446159 21.63922236 16.2734375 24.90625 C16.66390762 25.57893921 17.05437775 26.25162842 17.4566803 26.94470215 C21.47831413 33.85597888 25.63859031 40.68002488 29.8125 47.5 C35.29216371 56.46450278 40.6615039 65.47959001 45.80786133 74.640625 C49.30465256 80.85478219 52.96132124 86.96781856 56.63964844 93.07543945 C58.89573938 96.82222391 61.13488611 100.57884667 63.3671875 104.33984375 C63.72975647 104.95064285 64.09232544 105.56144196 64.46588135 106.19075012 C65.60251919 108.10617635 66.7387599 110.02183781 67.875 111.9375 C68.69983141 113.32749673 69.52470217 114.71747012 70.34960938 116.10742188 C72.05451243 118.98021674 73.75925038 121.85310949 75.46386719 124.72607422 C79.08234127 130.82435986 82.70290248 136.92140607 86.32339478 143.01849365 C87.50430594 145.00725158 88.68514885 146.99605001 89.8659668 148.98486328 C93.45684455 155.03286169 97.04787666 161.08076828 100.63949585 167.12832642 C109.08258056 181.34479012 117.52136889 195.56375901 125.94873047 209.78955078 C133.48229904 222.50489948 141.02976445 235.21199216 148.57666016 247.91943359 C152.94629001 255.27711109 157.3148801 262.63540601 161.68365479 269.99359131 C162.86852367 271.98922104 164.05339964 273.98484657 165.23828125 275.98046875 C165.629552 276.63946167 166.02082275 277.29845459 166.4239502 277.97741699 C168.82890537 282.0278548 171.2341099 286.07814442 173.63949585 290.12832642 C181.43178963 303.24898853 189.22189934 316.37091742 197 329.5 C198.29035682 331.67708793 199.58072151 333.8541712 200.87109375 336.03125 C203.47973956 340.4328212 206.08613257 344.83571324 208.69082642 349.23962402 C210.39654034 352.12272441 212.1037781 355.00492072 213.8112793 357.88696289 C214.63093606 359.27118323 215.44996992 360.65577265 216.26831055 362.04077148 C226.19068469 380.82684766 226.19068469 380.82684766 241.75 394.4375 C252.54748063 396.30629472 260.32688476 394.98965764 269.23828125 388.72265625 C274.68722208 383.94255162 277.86583806 377.30029462 281.375 371.0625 C282.13651752 369.73242056 282.89946625 368.40315955 283.66381836 367.07470703 C285.14403688 364.49992763 286.61873808 361.9221392 288.08837891 359.34130859 C290.1980318 355.65386167 292.36059413 352.00793174 294.5625 348.375 C298.53419214 341.79095204 302.45745988 335.17890557 306.375 328.5625 C307.77208777 326.20309678 309.16922744 323.8437243 310.56640625 321.484375 C310.92568207 320.87766464 311.28495789 320.27095428 311.65512085 319.64585876 C315.86871204 312.53145325 320.0904324 305.42187731 324.3125 298.3125 C324.70878601 297.64517853 325.10507202 296.97785706 325.5133667 296.29031372 C327.53439705 292.88702454 329.55550329 289.48378045 331.57666016 286.08056641 C333.97193438 282.04735173 336.36688187 278.01394312 338.76171875 273.98046875 C339.1529895 273.32147583 339.54426025 272.66248291 339.9473877 271.98352051 C341.13159745 269.98901703 342.31580014 267.99450936 343.5 266 C347.87952474 258.62370873 352.25906664 251.24742778 356.63949585 243.87167358 C365.08039972 229.65888198 373.5172219 215.44371176 381.94213867 201.22143555 C387.52784266 191.79343375 393.12246816 182.370746 398.71826172 172.94873047 C404.1504013 163.80204627 409.57812742 154.65277522 415 145.5 C420.76543486 135.76762225 426.53681771 126.03879887 432.3125 116.3125 C432.70869537 115.64529938 433.10489075 114.97809875 433.51309204 114.29067993 C436.74806348 108.84303694 439.98334049 103.39557544 443.21862793 97.94812012 C446.04172648 93.19466392 448.864707 88.44113765 451.6875 83.6875 C452.28215561 82.68609482 452.28215561 82.68609482 452.88882446 81.66445923 C457.61428356 73.70640666 462.33701377 65.74675116 467.05444336 57.78393555 C468.34271579 55.60944032 469.6312859 53.43512142 470.92016602 51.26098633 C474.18954596 45.74588057 477.45612133 40.22916466 480.71661377 34.70880127 C482.4316718 31.80605238 484.14878545 28.90452249 485.86621094 26.00317383 C486.69295847 24.60543173 487.51883273 23.20717267 488.34375 21.80834961 C492.70767548 14.40923501 497.10881505 7.06822773 502 0 C504.9553961 3.56758939 506.88051656 7.56509997 508.87890625 11.7109375 C509.24730118 12.46733017 509.61569611 13.22372284 509.99525452 14.0030365 C511.18897142 16.45813921 512.37600505 18.91639997 513.5625 21.375 C514.38258867 23.06668 515.20273862 24.75833029 516.02294922 26.44995117 C520.74979622 36.22042722 525.3639918 46.02928795 529.79956055 55.93579102 C532.34008815 61.59878566 535.02490027 67.16377091 537.83154297 72.69897461 C545.90967425 88.65777174 553.47132524 104.87829468 560.90332031 121.14599609 C563.46568159 126.74170166 566.102122 132.27571017 568.9309082 137.7421875 C577.06133947 154.91282654 576.12677176 178.41245929 569.9753418 195.91552734 C566.77138345 204.39191683 563.00118216 212.50746306 559 220.625 C557.78939784 223.0952479 556.5817905 225.5669506 555.375 228.0390625 C555.08012192 228.64196609 554.78524384 229.24486969 554.48143005 229.86604309 C552.79747793 233.32077396 551.1695299 236.79378165 549.59765625 240.30078125 C546.43474305 247.33262657 543.0079901 254.23551994 539.61517334 261.15835571 C533.22472606 274.20404232 526.95502583 287.28832147 520.91796875 300.50146484 C518.05954981 306.74522335 515.1024463 312.91883707 511.99658203 319.04272461 C504.92486635 333.00691894 498.3406785 347.21322475 491.8125 361.4375 C488.36862347 368.93780027 484.87504837 376.39363478 481.14111328 383.75366211 C473.47501735 398.89313089 466.21129051 414.24084117 459.1875 429.6875 C456.00430926 436.68703027 452.77559425 443.64160771 449.26611328 450.48388672 C447.29932205 454.33785395 445.41658215 458.22244806 443.59178162 462.14598083 C442.39230034 464.72386716 441.18135151 467.29632023 439.97085571 469.86904907 C439.37635574 471.14099739 438.78724324 472.41548114 438.20419312 473.69271851 C430.07879448 491.47672652 418.35504185 504.66945871 400 512 C399.23266603 512.3359852 398.46533207 512.67197041 397.67474556 513.01813698 C385.87480995 517.44937236 373.51501261 516.54487986 361.09716797 516.48583984 C358.47273571 516.48798813 355.84830438 516.49186943 353.22387695 516.49734497 C346.86044392 516.507376 340.49722045 516.49621333 334.13381349 516.47764437 C326.71157376 516.45677206 319.28937811 516.45701949 311.86711456 516.45798953 C298.61855976 516.45898855 285.37010187 516.44072696 272.12158203 516.41162109 C259.28692866 516.38343936 246.45236052 516.36928025 233.61767578 516.37060547 C232.82679581 516.37068538 232.03591583 516.37076529 231.2210698 516.37084763 C230.43151096 516.37092834 229.64195212 516.37100905 228.82846725 516.3710922 C214.18354404 516.37247435 199.53865679 516.36067924 184.89374527 516.34278577 C179.72855885 516.3367716 174.56337908 516.33462887 169.39818954 516.33372116 C162.43940551 516.33220886 155.48071217 516.31946081 148.5219574 516.29938889 C145.9722816 516.29356254 143.42259555 516.29108335 140.87291336 516.29224396 C137.38506109 516.29323058 133.89745526 516.28186317 130.40963745 516.26742554 C129.40777212 516.27052274 128.40590679 516.27361995 127.3736819 516.276811 C109.00372562 516.15177241 93.67563545 510.27493207 80.25 497.625 C68.09883028 484.72340175 61.70084505 467.44286769 54.42529297 451.56298828 C51.40798635 444.99198615 48.29621608 438.49332644 45.0078125 432.0546875 C42.0005775 426.11447021 39.253672 420.06107406 36.5 414 C33.18803135 406.71546804 29.81624762 399.48613599 26.19262695 392.35180664 C21.16976712 382.43777243 16.41938797 372.38839524 11.61523438 362.3671875 C10.12671733 359.26416043 8.63432781 356.16303318 7.140625 353.0625 C2.2709376 342.93752831 -2.50132831 332.77378493 -7.1875 322.5625 C-10.60807421 315.11375314 -14.07159741 307.70547556 -17.78417969 300.39794922 C-21.26032246 293.53918427 -24.59773522 286.61336511 -27.9375 279.6875 C-28.24243378 279.05514435 -28.54736755 278.4227887 -28.86154175 277.77127075 C-34.58102719 265.90422594 -40.2867913 254.02939432 -45.8203125 242.07421875 C-46.40093427 240.82026277 -46.98166139 239.56635556 -47.5625 238.3125 C-47.84150146 237.70994385 -48.12050293 237.1073877 -48.40795898 236.48657227 C-50.51576431 231.96498007 -52.74476814 227.5120115 -55 223.0625 C-67.67550605 197.8859636 -76.25257874 172.11482506 -68.10546875 143.90234375 C-63.34272855 129.51314632 -56.04809984 116.00823002 -49.24414062 102.50244141 C-41.58492211 87.25548038 -34.24993511 71.84414571 -27.1875 56.3125 C-24.00824729 49.32162907 -20.76820224 42.38515572 -17.28588867 35.5402832 C-13.58519607 28.24506156 -10.05044976 20.86909458 -6.5 13.5 C-6.17832855 12.83255768 -5.8566571 12.16511536 -5.52523804 11.47744751 C-3.68198925 7.65235404 -1.84032138 3.82650296 0 0 Z " fill="#004AAD" transform="translate(205,734)"/>
<path d="M0 0 C1.89492187 -0.00265869 1.89492187 -0.00265869 3.828125 -0.00537109 C14.53302884 0.12240255 24.74939125 1.14894837 34.75 5.125 C35.42554932 5.38740479 36.10109863 5.64980957 36.79711914 5.92016602 C46.4235768 9.75358962 54.77352101 14.68596732 62.6875 21.375 C63.50089844 22.04273438 64.31429688 22.71046875 65.15234375 23.3984375 C74.2933993 31.20143407 81.37035611 40.61011571 86.6875 51.375 C87.10644531 52.19097656 87.52539062 53.00695313 87.95703125 53.84765625 C91.65682555 61.43726449 93.75781894 69.18331471 95.6875 77.375 C95.8834375 78.1484375 96.079375 78.921875 96.28125 79.71875 C100.35800931 106.37448394 93.08409132 133.98533637 77.33984375 155.59765625 C61.6967028 175.20736226 39.45310887 187.70615886 14.6875 191.375 C-17.52289757 193.3575644 -42.30174626 186.95554197 -66.9375 165.625 C-83.12244278 150.49910042 -94.13169911 129.0740285 -95.53564453 106.84130859 C-95.65223722 102.95539025 -95.70068884 99.07474805 -95.6875 95.1875 C-95.68595917 94.50046997 -95.68441833 93.81343994 -95.68283081 93.10559082 C-95.5576045 69.66131534 -87.91123113 49.00321808 -72.3125 31.375 C-71.47074219 30.42238281 -70.62898438 29.46976563 -69.76171875 28.48828125 C-51.07031376 8.63385551 -26.86386695 0.0222165 0 0 Z " fill="#014BAD" transform="translate(1538.3125,1053.625)"/>
<path d="M0 0 C1.26070312 0.39058594 2.52140625 0.78117187 3.8203125 1.18359375 C28.09926884 9.19712079 45.70578499 25.81753463 58 48 C64.75856333 61.463345 67.70408478 75.53879248 67.52148438 90.48217773 C67.49995591 92.56676895 67.52148117 94.64793067 67.546875 96.73242188 C67.59347085 119.57343919 58.06733839 141.06501833 43 158 C41.98486328 159.15822266 41.98486328 159.15822266 40.94921875 160.33984375 C25.03484322 177.39310115 1.76265089 187.3882209 -21.359375 188.44921875 C-34.99940507 188.77803861 -48.03860447 188.48013454 -61 184 C-62.1653125 183.61070312 -63.330625 183.22140625 -64.53125 182.8203125 C-86.81764379 174.33742838 -106.86360541 155.51233695 -116.9140625 133.87890625 C-126.69867367 107.93912773 -128.6875171 79.99944064 -118 54 C-113.9111386 45.33203106 -108.91978503 37.52355149 -103 30 C-102.43539062 29.28070312 -101.87078125 28.56140625 -101.2890625 27.8203125 C-87.63924899 11.3508192 -65.94096465 -0.60762415 -44.67236328 -2.80151367 C-29.99837371 -3.89140528 -14.12087956 -4.6306625 0 0 Z " fill="#014BAD" transform="translate(994,1057)"/>
<path d="M0 0 C1.05703125 0.350625 2.1140625 0.70125 3.203125 1.0625 C18.42296473 6.68213313 28.54767197 17.62488751 37 31 C37.49628906 30.21496094 37.99257812 29.42992187 38.50390625 28.62109375 C47.6064231 14.54414644 59.66454281 3.9380466 76 -1 C76.91652344 -1.29648438 77.83304688 -1.59296875 78.77734375 -1.8984375 C95.34498613 -6.3628949 117.73497386 -6.69147072 133.875 -0.3125 C134.56553467 -0.0441333 135.25606934 0.2242334 135.9675293 0.50073242 C154.1080178 7.71936813 168.22015829 19.23217168 177.3125 36.6875 C177.62598389 37.27345947 177.93946777 37.85941895 178.26245117 38.46313477 C186.21111302 54.66004716 185.53389814 71.66243524 185.390625 89.25 C185.38090247 91.96239792 185.37726647 94.6747952 185.37347412 97.38720703 C185.36113781 103.75459971 185.32844582 110.12171128 185.28807616 116.48898125 C185.24306374 123.74915 185.22129806 131.00933356 185.20129442 138.26960754 C185.15970235 153.17991977 185.08647025 168.08986778 185 183 C174.11 183 163.22 183 152 183 C151.97812622 177.67125732 151.97812622 177.67125732 151.95581055 172.23486328 C151.90540992 160.48019157 151.83895363 148.72564062 151.76428509 136.97110176 C151.71941614 129.8463095 151.67998127 122.72156623 151.65356445 115.59667969 C151.63051193 109.38296191 151.59703375 103.16940033 151.55129844 96.95580661 C151.52746325 93.669042 151.51022696 90.38246259 151.50238609 87.09561539 C151.49272341 83.41653908 151.46463646 79.73802021 151.43237305 76.05908203 C151.43452568 74.44390434 151.43452568 74.44390434 151.4367218 72.7960968 C151.27252168 59.50320642 146.53713922 46.53713922 137 37 C124.04942973 26.48200554 110.39341408 23.6300555 94 25 C81.2674107 27.43503436 69.46779747 35.06030242 62.125 45.72265625 C55.68097822 56.12706642 53.55109421 65.8409247 53.56762695 77.98901367 C53.5574353 79.13178772 53.54724365 80.27456177 53.53674316 81.45196533 C53.50679623 85.1906842 53.49737508 88.92914608 53.48828125 92.66796875 C53.47142104 95.27542459 53.453269 97.88287238 53.43388367 100.49031067 C53.39041672 106.62750469 53.36174878 112.76467256 53.33856028 118.90197307 C53.31140159 125.89612668 53.26749727 132.89014493 53.22227156 139.88420141 C53.12970938 154.25607146 53.06010905 168.62795843 53 183 C42.11 183 31.22 183 20 183 C19.9906543 179.42244873 19.98130859 175.84489746 19.97167969 172.15893555 C19.93785771 160.31644022 19.88247882 148.47411195 19.81609726 136.6317625 C19.77638726 129.45429323 19.74395419 122.27693232 19.72900391 115.09936523 C19.71594543 108.83909483 19.68887481 102.57906367 19.64538693 96.31892806 C19.62286538 93.00804267 19.60917465 89.69751301 19.60811615 86.38654137 C19.60573944 82.67880124 19.57860034 78.9719844 19.54589844 75.2644043 C19.5509288 74.18186371 19.55595917 73.09932312 19.56114197 71.98397827 C19.38936973 59.33120932 14.40327957 47.53445996 5.75 38.25 C-5.57761145 27.71556922 -18.64304296 24.35951417 -33.703125 24.6640625 C-44.88068604 25.2597952 -55.89063345 30.29610178 -64 38 C-71.47066729 46.84028963 -77.07153743 57.39227824 -77.15821838 69.11897278 C-77.17290161 70.63120926 -77.17290161 70.63120926 -77.18788147 72.17399597 C-77.19363693 73.26875748 -77.1993924 74.36351898 -77.20532227 75.49145508 C-77.21522186 76.65286011 -77.22512146 77.81426514 -77.23532104 79.01086426 C-77.26689101 82.8470659 -77.2916758 86.68327992 -77.31640625 90.51953125 C-77.33697966 93.18039877 -77.35792909 95.84126066 -77.37937927 98.50212097 C-77.42922934 104.78826404 -77.47419657 111.07443214 -77.51740164 117.36062402 C-77.56683983 124.51903725 -77.62173348 131.67740542 -77.67708123 138.83577502 C-77.79078324 153.5571417 -77.89692768 168.27855471 -78 183 C-88.89 183 -99.78 183 -111 183 C-111.09064798 167.36949864 -111.16418274 151.73920902 -111.20724869 136.10852051 C-111.22778544 128.84926881 -111.25573354 121.59019325 -111.30175781 114.33105469 C-111.34190047 107.99651394 -111.3674972 101.66210088 -111.37635398 95.32743645 C-111.38152304 91.97991343 -111.39565091 88.63304204 -111.42292023 85.2855835 C-111.55531766 68.34752242 -111.56208693 52.17344848 -103.4375 36.8125 C-103.09944336 36.16015381 -102.76138672 35.50780762 -102.41308594 34.83569336 C-92.96896426 17.42335871 -76.93665407 4.7283712 -58.09375 -1.3203125 C-39.7702543 -6.50029033 -17.95874271 -6.4078143 0 0 Z " fill="#014BAD" transform="translate(1215,1058)"/>
<path d="M0 0 C13.37283541 12.58509475 22.78028222 30.95722146 23.96524429 49.42828751 C24.02924765 52.51405421 24.03281713 55.59381325 24.01220703 58.68017578 C24.01249908 59.84231094 24.01279114 61.00444611 24.01309204 62.20179749 C24.01170806 66.01091193 23.99619075 69.81982633 23.98046875 73.62890625 C23.97673531 76.28262666 23.97379141 78.93633624 23.97189331 81.59005737 C23.96570286 87.84067653 23.9493254 94.09122486 23.92919433 100.34181297 C23.90675905 107.46402752 23.89582281 114.58624564 23.88580346 121.7084868 C23.8649567 136.34606402 23.8283113 150.98356479 23.78515625 165.62109375 C12.89515625 165.62109375 2.00515625 165.62109375 -9.21484375 165.62109375 C-9.22418945 162.17518799 -9.23353516 158.72928223 -9.24316406 155.17895508 C-9.27701843 143.75956305 -9.33241603 132.34033104 -9.39874649 120.92108631 C-9.43841941 114.00150518 -9.4708711 107.08203584 -9.48583984 100.16235352 C-9.50032199 93.4772603 -9.53556669 86.79256368 -9.58315277 80.1076107 C-9.59792406 77.56454174 -9.60588231 75.02142326 -9.6067276 72.47831154 C-9.6198863 52.73018335 -10.60341351 35.56460195 -25.21484375 20.62109375 C-39.55529274 8.59883764 -54.96621405 6.65684217 -72.87109375 7.7890625 C-83.55171014 9.53493249 -95.79369166 16.9935546 -102.21484375 25.62109375 C-110.28903293 37.62961511 -113.66760451 48.91716523 -113.6472168 63.44824219 C-113.65740845 64.56190155 -113.6676001 65.67556091 -113.67810059 66.82296753 C-113.70799751 70.45885399 -113.71746086 74.09447602 -113.7265625 77.73046875 C-113.74342644 80.26923482 -113.76157897 82.80799262 -113.78096008 85.34674072 C-113.82345808 91.31744936 -113.85308026 97.28813152 -113.87628347 103.25893807 C-113.90346262 110.06448678 -113.94736543 116.8698968 -113.99257219 123.6753459 C-114.08508046 137.65720217 -114.15470813 151.63906269 -114.21484375 165.62109375 C-125.10484375 165.62109375 -135.99484375 165.62109375 -147.21484375 165.62109375 C-147.26013708 151.11224518 -147.29678442 136.60344404 -147.31846809 122.0945406 C-147.32874398 115.35653957 -147.34273302 108.61858587 -147.36572266 101.88061523 C-147.38754969 95.37075998 -147.39943312 88.86095373 -147.40459824 82.35106468 C-147.40827634 79.87494321 -147.41545849 77.39882423 -147.42630386 74.92272377 C-147.53096402 50.02393486 -147.53096402 50.02393486 -145.21484375 39.62109375 C-144.95445313 38.43773437 -144.6940625 37.254375 -144.42578125 36.03515625 C-140.43254846 22.7119403 -134.24662394 11.3426127 -124.21484375 1.62109375 C-123.50585938 0.9146875 -122.796875 0.20828125 -122.06640625 -0.51953125 C-89.77921527 -31.05831839 -32.39828152 -28.69895214 0 0 Z " fill="#014BAD" transform="translate(1824.21484375,1075.37890625)"/>
<path d="M0 0 C13.36542265 9.88219391 22.98828222 25.47725006 25.66796875 41.97265625 C25.97225081 46.39254357 25.99270369 50.79360925 25.98046875 55.22265625 C25.99658203 56.37378906 26.01269531 57.52492188 26.02929688 58.7109375 C26.03994354 77.59812482 19.17508434 93.91928119 6.35546875 107.72265625 C-7.11992249 120.40894801 -23.84166961 124.59556601 -41.77734375 124.3125 C-58.01314306 123.6418062 -72.21353365 115.59654011 -83.33203125 103.97265625 C-88.62477769 97.57014039 -92.19255967 90.62732291 -95.33203125 82.97265625 C-95.82521851 81.81455444 -95.82521851 81.81455444 -96.32836914 80.63305664 C-102.76199619 63.57948478 -100.76821998 42.25754351 -94.01171875 25.74609375 C-86.24232499 8.97609082 -72.75346138 -3.04368537 -55.45703125 -9.46484375 C-36.43274119 -14.83776446 -16.22827578 -10.78070225 0 0 Z " fill="#FDFEFE" transform="translate(1575.33203125,1093.02734375)"/>
<path d="M0 0 C13.06672158 10.79835762 21.52596531 25.94765824 24.25 42.6875 C26.04696712 63.84915223 22.52855631 83.37603792 10 100.8203125 C-0.54907138 113.27793298 -14.95478256 121.23222809 -31.23095703 122.94921875 C-48.76343148 124.15581229 -64.83262627 120.5461409 -78.43066406 108.84863281 C-90.98036531 97.5640539 -99.62139828 82.78035515 -100.75 65.6875 C-100.8997475 61.81223828 -100.96858471 57.9404404 -101 54.0625 C-101.01426025 52.61339233 -101.01426025 52.61339233 -101.02880859 51.13500977 C-100.95255444 34.58362245 -95.33179036 20.43991402 -84.75 7.6875 C-83.97076172 6.73810547 -83.97076172 6.73810547 -83.17578125 5.76953125 C-61.73438196 -17.83221054 -24.83080201 -18.35690509 0 0 Z " fill="#FDFEFE" transform="translate(1003.75,1094.3125)"/>
<path d="M0 0 C1.68314049 0.00424484 1.68314049 0.00424484 3.40028381 0.00857544 C6.96618543 0.01972475 10.53183119 0.04481999 14.09765625 0.0703125 C16.52278282 0.08034907 18.94791334 0.08947374 21.37304688 0.09765625 C27.30226 0.11794093 33.23092342 0.15710047 39.16015625 0.1953125 C39.16015625 9.4353125 39.16015625 18.6753125 39.16015625 28.1953125 C36.52144531 28.22109375 33.88273438 28.246875 31.1640625 28.2734375 C28.58233392 28.3119516 26.00079877 28.3570814 23.41918945 28.40283203 C21.63770934 28.430897 19.85610806 28.45218289 18.07446289 28.46630859 C2.58105363 28.41771914 2.58105363 28.41771914 -10.71484375 35.6328125 C-15.41047119 41.29518676 -16.95107063 45.56244585 -16.99806213 52.8394165 C-17.00785095 53.98924011 -17.01763977 55.13906372 -17.02772522 56.32373047 C-17.03348068 57.5810498 -17.03923615 58.83836914 -17.04516602 60.13378906 C-17.05474862 61.47426655 -17.06475893 62.81474105 -17.07516479 64.1552124 C-17.1021785 67.79120402 -17.12320717 71.42720856 -17.14316678 75.06324482 C-17.16504816 78.86426965 -17.19242631 82.66525478 -17.21922302 86.46624756 C-17.26912082 93.66261717 -17.31407045 100.85900885 -17.35724539 108.05542159 C-17.40664266 116.24885502 -17.46155155 124.4422486 -17.51692498 132.63564348 C-17.63070031 149.48883107 -17.73682144 166.34205523 -17.83984375 183.1953125 C-28.72984375 183.1953125 -39.61984375 183.1953125 -50.83984375 183.1953125 C-50.93039769 165.07024578 -51.00397258 146.94537437 -51.04709244 128.8201437 C-51.06765251 120.40288081 -51.09564647 111.98576923 -51.14160156 103.56860352 C-51.18167144 96.22583009 -51.20732411 88.88316634 -51.21619773 81.5402866 C-51.22137867 77.65801564 -51.23341596 73.7760582 -51.26276398 69.89388847 C-51.29025314 66.22732127 -51.29822256 62.56119172 -51.29227448 58.89453125 C-51.29387101 56.93284977 -51.31521617 54.9712141 -51.33752441 53.00965881 C-51.27530557 39.35193837 -48.33198065 27.15524987 -39.83984375 16.1953125 C-39.08960938 15.21304687 -39.08960938 15.21304687 -38.32421875 14.2109375 C-28.69322838 3.2179889 -13.90897168 -0.1330108 0 0 Z " fill="#004AAD" transform="translate(809.83984375,1057.8046875)"/>
</svg>
